<svg width="33" height="32" xmlns="http://www.w3.org/2000/svg"
    xmlns:xlink="http://www.w3.org/1999/xlink" xml:space="preserve" overflow="hidden"><defs><clipPath id="clip0"><rect x="1212" y="674" width="33" height="32"/></clipPath><clipPath id="clip1"><path d="M1236.86 706 1220.14 706C1215.67 706 1212 702.439 1212 698.108L1212 681.892C1212 677.561 1215.67 674 1220.14 674L1236.86 674C1241.33 674 1245 677.561 1245 681.892L1245 698.108C1245 702.439 1241.33 706 1236.86 706Z"/></clipPath><linearGradient x1="10.8539" y1="47.8135" x2="62.4606" y2="-5.62668" gradientUnits="userSpaceOnUse" spreadMethod="pad" id="fill2"><stop offset="0" stop-color="#4C4EAC"/><stop offset="0.0250225" stop-color="#4C4EAC"/><stop offset="0.0740612" stop-color="#544DB0"/><stop offset="0.1482" stop-color="#684ABC"/><stop offset="0.2202" stop-color="#8346CA"/><stop offset="0.2535" stop-color="#9041CD"/><stop offset="0.3149" stop-color="#B233D6"/><stop offset="0.3403" stop-color="#C22DDA"/><stop offset="0.4131" stop-color="#E813A9"/><stop offset="0.4561" stop-color="#F4248F"/><stop offset="0.4883" stop-color="#FF3378"/><stop offset="0.5469" stop-color="#FF685B"/><stop offset="0.6003" stop-color="#FF7856"/><stop offset="0.6558" stop-color="#FE8750"/><stop offset="0.8884" stop-color="#FCC13A"/><stop offset="1" stop-color="#FBD831"/></linearGradient></defs><g clip-path="url(#clip0)" transform="translate(-1212 -674)"><g clip-path="url(#clip1)"><path d="M95.615 29.2331 44.2466 80.6015-22.8571 13.4977 28.5113-37.8707Z" fill="url(#fill2)" transform="matrix(1.03125 0 0 1 1212 674)"/></g><path d="M21.6782 8.9985C21.7504 8.61353 21.6301 8.39699 21.2451 8.27669 20.2586 7.96391 19.2722 7.89173 18.3098 7.89173 14.6767 7.89173 11.7414 9.67218 11.7414 14.5805L11.7414 23.5789C11.7414 23.9398 11.9338 24.1323 12.2947 24.1323L14.8211 24.1323C15.182 24.1323 15.3744 23.9398 15.3744 23.5789L15.3744 14.5805C15.3744 12.0541 16.9624 11.4045 18.6947 11.4045 19.3203 11.4045 19.9699 11.4526 20.6436 11.597 21.1008 11.6932 21.2211 11.5248 21.2692 11.1639L21.6782 8.9985 21.6782 8.9985Z" fill="#FFFFFF" transform="matrix(1.03125 0 0 1 1212 674)"/></g></svg>